<?xml version="1.0" encoding="UTF-8"?>
<svg version="1.1" xmlns="http://www.w3.org/2000/svg" width="191" height="192">
<path d="M0 0 C63.03 0 126.06 0 191 0 C191 63.36 191 126.72 191 192 C127.97 192 64.94 192 0 192 C0 128.64 0 65.28 0 0 Z " fill="#0A0A0A" transform="translate(0,0)"/>
<path d="M0 0 C3.67123639 0.01977327 4.15668193 0.29756585 7.1875 2.8125 C8.2084375 4.0809375 8.2084375 4.0809375 9.25 5.375 C9.58 5.705 9.91 6.035 10.25 6.375 C10.54322866 9.30728663 10.75004247 11.51991883 10.25 14.375 C7.8125 17.3125 7.8125 17.3125 5.25 19.375 C4.92 19.705 4.59 20.035 4.25 20.375 C1.31771337 20.66822866 -0.89491883 20.87504247 -3.75 20.375 C-6.6875 17.9375 -6.6875 17.9375 -8.75 15.375 C-9.08 15.045 -9.41 14.715 -9.75 14.375 C-10.04322866 11.44271337 -10.25004247 9.23008117 -9.75 6.375 C-7.3125 3.4375 -7.3125 3.4375 -4.75 1.375 C-3.75 0.375 -3.75 0.375 0 0 Z " fill="#EBEBEB" transform="translate(149.75,139.625)"/>
<path d="M0 0 C3.67123639 0.01977327 4.15668193 0.29756585 7.1875 2.8125 C8.2084375 4.0809375 8.2084375 4.0809375 9.25 5.375 C9.58 5.705 9.91 6.035 10.25 6.375 C10.54322866 9.30728663 10.75004247 11.51991883 10.25 14.375 C7.8125 17.3125 7.8125 17.3125 5.25 19.375 C4.92 19.705 4.59 20.035 4.25 20.375 C1.31771337 20.66822866 -0.89491883 20.87504247 -3.75 20.375 C-6.6875 17.9375 -6.6875 17.9375 -8.75 15.375 C-9.08 15.045 -9.41 14.715 -9.75 14.375 C-10.04322866 11.44271337 -10.25004247 9.23008117 -9.75 6.375 C-7.3125 3.4375 -7.3125 3.4375 -4.75 1.375 C-3.75 0.375 -3.75 0.375 0 0 Z " fill="#EBEBEB" transform="translate(41.75,139.625)"/>
<path d="M0 0 C3.67123639 0.01977327 4.15668193 0.29756585 7.1875 2.8125 C8.2084375 4.0809375 8.2084375 4.0809375 9.25 5.375 C9.58 5.705 9.91 6.035 10.25 6.375 C10.54322866 9.30728663 10.75004247 11.51991883 10.25 14.375 C7.8125 17.3125 7.8125 17.3125 5.25 19.375 C4.92 19.705 4.59 20.035 4.25 20.375 C1.31771337 20.66822866 -0.89491883 20.87504247 -3.75 20.375 C-6.6875 17.9375 -6.6875 17.9375 -8.75 15.375 C-9.08 15.045 -9.41 14.715 -9.75 14.375 C-10.04322866 11.44271337 -10.25004247 9.23008117 -9.75 6.375 C-7.3125 3.4375 -7.3125 3.4375 -4.75 1.375 C-3.75 0.375 -3.75 0.375 0 0 Z " fill="#EBEBEB" transform="translate(122.75,112.625)"/>
<path d="M0 0 C3.67123639 0.01977327 4.15668193 0.29756585 7.1875 2.8125 C8.2084375 4.0809375 8.2084375 4.0809375 9.25 5.375 C9.58 5.705 9.91 6.035 10.25 6.375 C10.54322866 9.30728663 10.75004247 11.51991883 10.25 14.375 C7.8125 17.3125 7.8125 17.3125 5.25 19.375 C4.92 19.705 4.59 20.035 4.25 20.375 C1.31771337 20.66822866 -0.89491883 20.87504247 -3.75 20.375 C-6.6875 17.9375 -6.6875 17.9375 -8.75 15.375 C-9.08 15.045 -9.41 14.715 -9.75 14.375 C-10.04322866 11.44271337 -10.25004247 9.23008117 -9.75 6.375 C-7.3125 3.4375 -7.3125 3.4375 -4.75 1.375 C-3.75 0.375 -3.75 0.375 0 0 Z " fill="#EBEBEB" transform="translate(41.75,112.625)"/>
<path d="M0 0 C3.67123639 0.01977327 4.15668193 0.29756585 7.1875 2.8125 C8.2084375 4.0809375 8.2084375 4.0809375 9.25 5.375 C9.58 5.705 9.91 6.035 10.25 6.375 C10.54322866 9.30728663 10.75004247 11.51991883 10.25 14.375 C7.8125 17.3125 7.8125 17.3125 5.25 19.375 C4.92 19.705 4.59 20.035 4.25 20.375 C1.31771337 20.66822866 -0.89491883 20.87504247 -3.75 20.375 C-6.6875 17.9375 -6.6875 17.9375 -8.75 15.375 C-9.08 15.045 -9.41 14.715 -9.75 14.375 C-10.04322866 11.44271337 -10.25004247 9.23008117 -9.75 6.375 C-7.3125 3.4375 -7.3125 3.4375 -4.75 1.375 C-3.75 0.375 -3.75 0.375 0 0 Z " fill="#EBEBEB" transform="translate(149.75,85.625)"/>
<path d="M0 0 C3.67123639 0.01977327 4.15668193 0.29756585 7.1875 2.8125 C8.2084375 4.0809375 8.2084375 4.0809375 9.25 5.375 C9.58 5.705 9.91 6.035 10.25 6.375 C10.54322866 9.30728663 10.75004247 11.51991883 10.25 14.375 C7.8125 17.3125 7.8125 17.3125 5.25 19.375 C4.92 19.705 4.59 20.035 4.25 20.375 C1.31771337 20.66822866 -0.89491883 20.87504247 -3.75 20.375 C-6.6875 17.9375 -6.6875 17.9375 -8.75 15.375 C-9.08 15.045 -9.41 14.715 -9.75 14.375 C-10.04322866 11.44271337 -10.25004247 9.23008117 -9.75 6.375 C-7.3125 3.4375 -7.3125 3.4375 -4.75 1.375 C-3.75 0.375 -3.75 0.375 0 0 Z " fill="#EBEBEB" transform="translate(95.75,85.625)"/>
<path d="M0 0 C3.67123639 0.01977327 4.15668193 0.29756585 7.1875 2.8125 C8.2084375 4.0809375 8.2084375 4.0809375 9.25 5.375 C9.58 5.705 9.91 6.035 10.25 6.375 C10.54322866 9.30728663 10.75004247 11.51991883 10.25 14.375 C7.8125 17.3125 7.8125 17.3125 5.25 19.375 C4.92 19.705 4.59 20.035 4.25 20.375 C1.31771337 20.66822866 -0.89491883 20.87504247 -3.75 20.375 C-6.6875 17.9375 -6.6875 17.9375 -8.75 15.375 C-9.08 15.045 -9.41 14.715 -9.75 14.375 C-10.04322866 11.44271337 -10.25004247 9.23008117 -9.75 6.375 C-7.3125 3.4375 -7.3125 3.4375 -4.75 1.375 C-3.75 0.375 -3.75 0.375 0 0 Z " fill="#EBEBEB" transform="translate(41.75,85.625)"/>
<path d="M0 0 C3.67123639 0.01977327 4.15668193 0.29756585 7.1875 2.8125 C8.2084375 4.0809375 8.2084375 4.0809375 9.25 5.375 C9.58 5.705 9.91 6.035 10.25 6.375 C10.54322866 9.30728663 10.75004247 11.51991883 10.25 14.375 C7.8125 17.3125 7.8125 17.3125 5.25 19.375 C4.92 19.705 4.59 20.035 4.25 20.375 C1.31771337 20.66822866 -0.89491883 20.87504247 -3.75 20.375 C-6.6875 17.9375 -6.6875 17.9375 -8.75 15.375 C-9.08 15.045 -9.41 14.715 -9.75 14.375 C-10.04322866 11.44271337 -10.25004247 9.23008117 -9.75 6.375 C-7.3125 3.4375 -7.3125 3.4375 -4.75 1.375 C-3.75 0.375 -3.75 0.375 0 0 Z " fill="#EBEBEB" transform="translate(149.75,58.625)"/>
<path d="M0 0 C3.67123639 0.01977327 4.15668193 0.29756585 7.1875 2.8125 C8.2084375 4.0809375 8.2084375 4.0809375 9.25 5.375 C9.58 5.705 9.91 6.035 10.25 6.375 C10.54322866 9.30728663 10.75004247 11.51991883 10.25 14.375 C7.8125 17.3125 7.8125 17.3125 5.25 19.375 C4.92 19.705 4.59 20.035 4.25 20.375 C1.31771337 20.66822866 -0.89491883 20.87504247 -3.75 20.375 C-6.6875 17.9375 -6.6875 17.9375 -8.75 15.375 C-9.08 15.045 -9.41 14.715 -9.75 14.375 C-10.04322866 11.44271337 -10.25004247 9.23008117 -9.75 6.375 C-7.3125 3.4375 -7.3125 3.4375 -4.75 1.375 C-3.75 0.375 -3.75 0.375 0 0 Z " fill="#EBEBEB" transform="translate(41.75,58.625)"/>
<path d="M0 0 C3.67123639 0.01977327 4.15668193 0.29756585 7.1875 2.8125 C8.2084375 4.0809375 8.2084375 4.0809375 9.25 5.375 C9.58 5.705 9.91 6.035 10.25 6.375 C10.54322866 9.30728663 10.75004247 11.51991883 10.25 14.375 C7.8125 17.3125 7.8125 17.3125 5.25 19.375 C4.92 19.705 4.59 20.035 4.25 20.375 C1.31771337 20.66822866 -0.89491883 20.87504247 -3.75 20.375 C-6.6875 17.9375 -6.6875 17.9375 -8.75 15.375 C-9.08 15.045 -9.41 14.715 -9.75 14.375 C-10.04322866 11.44271337 -10.25004247 9.23008117 -9.75 6.375 C-7.3125 3.4375 -7.3125 3.4375 -4.75 1.375 C-3.75 0.375 -3.75 0.375 0 0 Z " fill="#EBEBEB" transform="translate(149.75,31.625)"/>
<path d="M0 0 C3.67123639 0.01977327 4.15668193 0.29756585 7.1875 2.8125 C8.2084375 4.0809375 8.2084375 4.0809375 9.25 5.375 C9.58 5.705 9.91 6.035 10.25 6.375 C10.54322866 9.30728663 10.75004247 11.51991883 10.25 14.375 C7.8125 17.3125 7.8125 17.3125 5.25 19.375 C4.92 19.705 4.59 20.035 4.25 20.375 C1.31771337 20.66822866 -0.89491883 20.87504247 -3.75 20.375 C-6.6875 17.9375 -6.6875 17.9375 -8.75 15.375 C-9.08 15.045 -9.41 14.715 -9.75 14.375 C-10.04322866 11.44271337 -10.25004247 9.23008117 -9.75 6.375 C-7.3125 3.4375 -7.3125 3.4375 -4.75 1.375 C-3.75 0.375 -3.75 0.375 0 0 Z " fill="#EBEBEB" transform="translate(122.75,31.625)"/>
<path d="M0 0 C3.67123639 0.01977327 4.15668193 0.29756585 7.1875 2.8125 C8.2084375 4.0809375 8.2084375 4.0809375 9.25 5.375 C9.58 5.705 9.91 6.035 10.25 6.375 C10.54322866 9.30728663 10.75004247 11.51991883 10.25 14.375 C7.8125 17.3125 7.8125 17.3125 5.25 19.375 C4.92 19.705 4.59 20.035 4.25 20.375 C1.31771337 20.66822866 -0.89491883 20.87504247 -3.75 20.375 C-6.6875 17.9375 -6.6875 17.9375 -8.75 15.375 C-9.08 15.045 -9.41 14.715 -9.75 14.375 C-10.04322866 11.44271337 -10.25004247 9.23008117 -9.75 6.375 C-7.3125 3.4375 -7.3125 3.4375 -4.75 1.375 C-3.75 0.375 -3.75 0.375 0 0 Z " fill="#EBEBEB" transform="translate(95.75,31.625)"/>
<path d="M0 0 C3.67123639 0.01977327 4.15668193 0.29756585 7.1875 2.8125 C8.2084375 4.0809375 8.2084375 4.0809375 9.25 5.375 C9.58 5.705 9.91 6.035 10.25 6.375 C10.54322866 9.30728663 10.75004247 11.51991883 10.25 14.375 C7.8125 17.3125 7.8125 17.3125 5.25 19.375 C4.92 19.705 4.59 20.035 4.25 20.375 C1.31771337 20.66822866 -0.89491883 20.87504247 -3.75 20.375 C-6.6875 17.9375 -6.6875 17.9375 -8.75 15.375 C-9.08 15.045 -9.41 14.715 -9.75 14.375 C-10.04322866 11.44271337 -10.25004247 9.23008117 -9.75 6.375 C-7.3125 3.4375 -7.3125 3.4375 -4.75 1.375 C-3.75 0.375 -3.75 0.375 0 0 Z " fill="#EBEBEB" transform="translate(68.75,31.625)"/>
<path d="M0 0 C3.67123639 0.01977327 4.15668193 0.29756585 7.1875 2.8125 C8.2084375 4.0809375 8.2084375 4.0809375 9.25 5.375 C9.58 5.705 9.91 6.035 10.25 6.375 C10.54322866 9.30728663 10.75004247 11.51991883 10.25 14.375 C7.8125 17.3125 7.8125 17.3125 5.25 19.375 C4.92 19.705 4.59 20.035 4.25 20.375 C1.31771337 20.66822866 -0.89491883 20.87504247 -3.75 20.375 C-6.6875 17.9375 -6.6875 17.9375 -8.75 15.375 C-9.08 15.045 -9.41 14.715 -9.75 14.375 C-10.04322866 11.44271337 -10.25004247 9.23008117 -9.75 6.375 C-7.3125 3.4375 -7.3125 3.4375 -4.75 1.375 C-3.75 0.375 -3.75 0.375 0 0 Z " fill="#EBEBEB" transform="translate(41.75,31.625)"/>
<path d="M0 0 C3.95403662 0.26360244 5.65370756 0.86143155 8.75 3.25 C11.23386059 6.97579089 11.1304212 8.83711402 10.75 13.25 C9.49544028 16.07275936 8.46615278 17.71288541 6 19.5625 C2.68788168 20.57453615 0.19560774 20.67314481 -3.25 20.25 C-7.12949018 17.04520377 -9.05826445 14.94366403 -9.625 9.9375 C-9.15786625 5.34401813 -7.72959782 4.13552015 -4.25 1.25 C-3.25 0.25 -3.25 0.25 0 0 Z " fill="#373737" transform="translate(122.25,139.75)"/>
<path d="M0 0 C3.95403662 0.26360244 5.65370756 0.86143155 8.75 3.25 C11.23386059 6.97579089 11.1304212 8.83711402 10.75 13.25 C9.49544028 16.07275936 8.46615278 17.71288541 6 19.5625 C2.68788168 20.57453615 0.19560774 20.67314481 -3.25 20.25 C-7.12949018 17.04520377 -9.05826445 14.94366403 -9.625 9.9375 C-9.15786625 5.34401813 -7.72959782 4.13552015 -4.25 1.25 C-3.25 0.25 -3.25 0.25 0 0 Z " fill="#373737" transform="translate(95.25,139.75)"/>
<path d="M0 0 C3.95403662 0.26360244 5.65370756 0.86143155 8.75 3.25 C11.23386059 6.97579089 11.1304212 8.83711402 10.75 13.25 C9.49544028 16.07275936 8.46615278 17.71288541 6 19.5625 C2.68788168 20.57453615 0.19560774 20.67314481 -3.25 20.25 C-7.12949018 17.04520377 -9.05826445 14.94366403 -9.625 9.9375 C-9.15786625 5.34401813 -7.72959782 4.13552015 -4.25 1.25 C-3.25 0.25 -3.25 0.25 0 0 Z " fill="#373737" transform="translate(68.25,139.75)"/>
<path d="M0 0 C3.95403662 0.26360244 5.65370756 0.86143155 8.75 3.25 C11.23386059 6.97579089 11.1304212 8.83711402 10.75 13.25 C9.49544028 16.07275936 8.46615278 17.71288541 6 19.5625 C2.68788168 20.57453615 0.19560774 20.67314481 -3.25 20.25 C-7.12949018 17.04520377 -9.05826445 14.94366403 -9.625 9.9375 C-9.15786625 5.34401813 -7.72959782 4.13552015 -4.25 1.25 C-3.25 0.25 -3.25 0.25 0 0 Z " fill="#373737" transform="translate(149.25,112.75)"/>
<path d="M0 0 C3.95403662 0.26360244 5.65370756 0.86143155 8.75 3.25 C11.23386059 6.97579089 11.1304212 8.83711402 10.75 13.25 C9.49544028 16.07275936 8.46615278 17.71288541 6 19.5625 C2.68788168 20.57453615 0.19560774 20.67314481 -3.25 20.25 C-7.12949018 17.04520377 -9.05826445 14.94366403 -9.625 9.9375 C-9.15786625 5.34401813 -7.72959782 4.13552015 -4.25 1.25 C-3.25 0.25 -3.25 0.25 0 0 Z " fill="#373737" transform="translate(95.25,112.75)"/>
<path d="M0 0 C3.95403662 0.26360244 5.65370756 0.86143155 8.75 3.25 C11.23386059 6.97579089 11.1304212 8.83711402 10.75 13.25 C9.49544028 16.07275936 8.46615278 17.71288541 6 19.5625 C2.68788168 20.57453615 0.19560774 20.67314481 -3.25 20.25 C-7.12949018 17.04520377 -9.05826445 14.94366403 -9.625 9.9375 C-9.15786625 5.34401813 -7.72959782 4.13552015 -4.25 1.25 C-3.25 0.25 -3.25 0.25 0 0 Z " fill="#373737" transform="translate(68.25,112.75)"/>
<path d="M0 0 C3.95403662 0.26360244 5.65370756 0.86143155 8.75 3.25 C11.23386059 6.97579089 11.1304212 8.83711402 10.75 13.25 C9.49544028 16.07275936 8.46615278 17.71288541 6 19.5625 C2.68788168 20.57453615 0.19560774 20.67314481 -3.25 20.25 C-7.12949018 17.04520377 -9.05826445 14.94366403 -9.625 9.9375 C-9.15786625 5.34401813 -7.72959782 4.13552015 -4.25 1.25 C-3.25 0.25 -3.25 0.25 0 0 Z " fill="#373737" transform="translate(122.25,85.75)"/>
<path d="M0 0 C3.95403662 0.26360244 5.65370756 0.86143155 8.75 3.25 C11.23386059 6.97579089 11.1304212 8.83711402 10.75 13.25 C9.49544028 16.07275936 8.46615278 17.71288541 6 19.5625 C2.68788168 20.57453615 0.19560774 20.67314481 -3.25 20.25 C-7.12949018 17.04520377 -9.05826445 14.94366403 -9.625 9.9375 C-9.15786625 5.34401813 -7.72959782 4.13552015 -4.25 1.25 C-3.25 0.25 -3.25 0.25 0 0 Z " fill="#373737" transform="translate(68.25,85.75)"/>
<path d="M0 0 C3.95403662 0.26360244 5.65370756 0.86143155 8.75 3.25 C11.23386059 6.97579089 11.1304212 8.83711402 10.75 13.25 C9.49544028 16.07275936 8.46615278 17.71288541 6 19.5625 C2.68788168 20.57453615 0.19560774 20.67314481 -3.25 20.25 C-7.12949018 17.04520377 -9.05826445 14.94366403 -9.625 9.9375 C-9.15786625 5.34401813 -7.72959782 4.13552015 -4.25 1.25 C-3.25 0.25 -3.25 0.25 0 0 Z " fill="#373737" transform="translate(122.25,58.75)"/>
<path d="M0 0 C3.95403662 0.26360244 5.65370756 0.86143155 8.75 3.25 C11.23386059 6.97579089 11.1304212 8.83711402 10.75 13.25 C9.49544028 16.07275936 8.46615278 17.71288541 6 19.5625 C2.68788168 20.57453615 0.19560774 20.67314481 -3.25 20.25 C-7.12949018 17.04520377 -9.05826445 14.94366403 -9.625 9.9375 C-9.15786625 5.34401813 -7.72959782 4.13552015 -4.25 1.25 C-3.25 0.25 -3.25 0.25 0 0 Z " fill="#373737" transform="translate(95.25,58.75)"/>
<path d="M0 0 C3.95403662 0.26360244 5.65370756 0.86143155 8.75 3.25 C11.23386059 6.97579089 11.1304212 8.83711402 10.75 13.25 C9.49544028 16.07275936 8.46615278 17.71288541 6 19.5625 C2.68788168 20.57453615 0.19560774 20.67314481 -3.25 20.25 C-7.12949018 17.04520377 -9.05826445 14.94366403 -9.625 9.9375 C-9.15786625 5.34401813 -7.72959782 4.13552015 -4.25 1.25 C-3.25 0.25 -3.25 0.25 0 0 Z " fill="#373737" transform="translate(68.25,58.75)"/>
<path d="M0 0 C3.9672797 0.26448531 5.67929288 0.7934343 8.75 3.25 C11.07826375 6.46522137 11.14711181 9.35830425 10.75 13.25 C9.48896101 16.02428577 8.43910086 17.73317435 6 19.5625 C2.68788168 20.57453615 0.19560774 20.67314481 -3.25 20.25 C-7.12949018 17.04520377 -9.05826445 14.94366403 -9.625 9.9375 C-9.15786625 5.34401813 -7.72959782 4.13552015 -4.25 1.25 C-3.25 0.25 -3.25 0.25 0 0 Z " fill="#212121" transform="translate(176.25,166.75)"/>
<path d="M0 0 C3.9672797 0.26448531 5.67929288 0.7934343 8.75 3.25 C11.07826375 6.46522137 11.14711181 9.35830425 10.75 13.25 C9.48896101 16.02428577 8.43910086 17.73317435 6 19.5625 C2.68788168 20.57453615 0.19560774 20.67314481 -3.25 20.25 C-7.12949018 17.04520377 -9.05826445 14.94366403 -9.625 9.9375 C-9.15786625 5.34401813 -7.72959782 4.13552015 -4.25 1.25 C-3.25 0.25 -3.25 0.25 0 0 Z " fill="#212121" transform="translate(149.25,166.75)"/>
<path d="M0 0 C3.9672797 0.26448531 5.67929288 0.7934343 8.75 3.25 C11.07826375 6.46522137 11.14711181 9.35830425 10.75 13.25 C9.48896101 16.02428577 8.43910086 17.73317435 6 19.5625 C2.68788168 20.57453615 0.19560774 20.67314481 -3.25 20.25 C-7.12949018 17.04520377 -9.05826445 14.94366403 -9.625 9.9375 C-9.15786625 5.34401813 -7.72959782 4.13552015 -4.25 1.25 C-3.25 0.25 -3.25 0.25 0 0 Z " fill="#212121" transform="translate(122.25,166.75)"/>
<path d="M0 0 C3.9672797 0.26448531 5.67929288 0.7934343 8.75 3.25 C11.07826375 6.46522137 11.14711181 9.35830425 10.75 13.25 C9.48896101 16.02428577 8.43910086 17.73317435 6 19.5625 C2.68788168 20.57453615 0.19560774 20.67314481 -3.25 20.25 C-7.12949018 17.04520377 -9.05826445 14.94366403 -9.625 9.9375 C-9.15786625 5.34401813 -7.72959782 4.13552015 -4.25 1.25 C-3.25 0.25 -3.25 0.25 0 0 Z " fill="#212121" transform="translate(95.25,166.75)"/>
<path d="M0 0 C3.9672797 0.26448531 5.67929288 0.7934343 8.75 3.25 C11.07826375 6.46522137 11.14711181 9.35830425 10.75 13.25 C9.48896101 16.02428577 8.43910086 17.73317435 6 19.5625 C2.68788168 20.57453615 0.19560774 20.67314481 -3.25 20.25 C-7.12949018 17.04520377 -9.05826445 14.94366403 -9.625 9.9375 C-9.15786625 5.34401813 -7.72959782 4.13552015 -4.25 1.25 C-3.25 0.25 -3.25 0.25 0 0 Z " fill="#212121" transform="translate(68.25,166.75)"/>
<path d="M0 0 C3.9672797 0.26448531 5.67929288 0.7934343 8.75 3.25 C11.07826375 6.46522137 11.14711181 9.35830425 10.75 13.25 C9.48896101 16.02428577 8.43910086 17.73317435 6 19.5625 C2.68788168 20.57453615 0.19560774 20.67314481 -3.25 20.25 C-7.12949018 17.04520377 -9.05826445 14.94366403 -9.625 9.9375 C-9.15786625 5.34401813 -7.72959782 4.13552015 -4.25 1.25 C-3.25 0.25 -3.25 0.25 0 0 Z " fill="#212121" transform="translate(41.25,166.75)"/>
<path d="M0 0 C3.9672797 0.26448531 5.67929288 0.7934343 8.75 3.25 C11.07826375 6.46522137 11.14711181 9.35830425 10.75 13.25 C9.48896101 16.02428577 8.43910086 17.73317435 6 19.5625 C2.68788168 20.57453615 0.19560774 20.67314481 -3.25 20.25 C-7.12949018 17.04520377 -9.05826445 14.94366403 -9.625 9.9375 C-9.15786625 5.34401813 -7.72959782 4.13552015 -4.25 1.25 C-3.25 0.25 -3.25 0.25 0 0 Z " fill="#212121" transform="translate(14.25,166.75)"/>
<path d="M0 0 C3.9672797 0.26448531 5.67929288 0.7934343 8.75 3.25 C11.07826375 6.46522137 11.14711181 9.35830425 10.75 13.25 C9.48896101 16.02428577 8.43910086 17.73317435 6 19.5625 C2.68788168 20.57453615 0.19560774 20.67314481 -3.25 20.25 C-7.12949018 17.04520377 -9.05826445 14.94366403 -9.625 9.9375 C-9.15786625 5.34401813 -7.72959782 4.13552015 -4.25 1.25 C-3.25 0.25 -3.25 0.25 0 0 Z " fill="#212121" transform="translate(176.25,139.75)"/>
<path d="M0 0 C3.9672797 0.26448531 5.67929288 0.7934343 8.75 3.25 C11.07826375 6.46522137 11.14711181 9.35830425 10.75 13.25 C9.48896101 16.02428577 8.43910086 17.73317435 6 19.5625 C2.68788168 20.57453615 0.19560774 20.67314481 -3.25 20.25 C-7.12949018 17.04520377 -9.05826445 14.94366403 -9.625 9.9375 C-9.15786625 5.34401813 -7.72959782 4.13552015 -4.25 1.25 C-3.25 0.25 -3.25 0.25 0 0 Z " fill="#212121" transform="translate(14.25,139.75)"/>
<path d="M0 0 C3.9672797 0.26448531 5.67929288 0.7934343 8.75 3.25 C11.07826375 6.46522137 11.14711181 9.35830425 10.75 13.25 C9.48896101 16.02428577 8.43910086 17.73317435 6 19.5625 C2.68788168 20.57453615 0.19560774 20.67314481 -3.25 20.25 C-7.12949018 17.04520377 -9.05826445 14.94366403 -9.625 9.9375 C-9.15786625 5.34401813 -7.72959782 4.13552015 -4.25 1.25 C-3.25 0.25 -3.25 0.25 0 0 Z " fill="#212121" transform="translate(176.25,112.75)"/>
<path d="M0 0 C3.9672797 0.26448531 5.67929288 0.7934343 8.75 3.25 C11.07826375 6.46522137 11.14711181 9.35830425 10.75 13.25 C9.48896101 16.02428577 8.43910086 17.73317435 6 19.5625 C2.68788168 20.57453615 0.19560774 20.67314481 -3.25 20.25 C-7.12949018 17.04520377 -9.05826445 14.94366403 -9.625 9.9375 C-9.15786625 5.34401813 -7.72959782 4.13552015 -4.25 1.25 C-3.25 0.25 -3.25 0.25 0 0 Z " fill="#212121" transform="translate(14.25,112.75)"/>
<path d="M0 0 C3.9672797 0.26448531 5.67929288 0.7934343 8.75 3.25 C11.07826375 6.46522137 11.14711181 9.35830425 10.75 13.25 C9.48896101 16.02428577 8.43910086 17.73317435 6 19.5625 C2.68788168 20.57453615 0.19560774 20.67314481 -3.25 20.25 C-7.12949018 17.04520377 -9.05826445 14.94366403 -9.625 9.9375 C-9.15786625 5.34401813 -7.72959782 4.13552015 -4.25 1.25 C-3.25 0.25 -3.25 0.25 0 0 Z " fill="#212121" transform="translate(176.25,85.75)"/>
<path d="M0 0 C3.9672797 0.26448531 5.67929288 0.7934343 8.75 3.25 C11.07826375 6.46522137 11.14711181 9.35830425 10.75 13.25 C9.48896101 16.02428577 8.43910086 17.73317435 6 19.5625 C2.68788168 20.57453615 0.19560774 20.67314481 -3.25 20.25 C-7.12949018 17.04520377 -9.05826445 14.94366403 -9.625 9.9375 C-9.15786625 5.34401813 -7.72959782 4.13552015 -4.25 1.25 C-3.25 0.25 -3.25 0.25 0 0 Z " fill="#212121" transform="translate(14.25,85.75)"/>
<path d="M0 0 C3.9672797 0.26448531 5.67929288 0.7934343 8.75 3.25 C11.07826375 6.46522137 11.14711181 9.35830425 10.75 13.25 C9.48896101 16.02428577 8.43910086 17.73317435 6 19.5625 C2.68788168 20.57453615 0.19560774 20.67314481 -3.25 20.25 C-7.12949018 17.04520377 -9.05826445 14.94366403 -9.625 9.9375 C-9.15786625 5.34401813 -7.72959782 4.13552015 -4.25 1.25 C-3.25 0.25 -3.25 0.25 0 0 Z " fill="#212121" transform="translate(176.25,58.75)"/>
<path d="M0 0 C3.9672797 0.26448531 5.67929288 0.7934343 8.75 3.25 C11.07826375 6.46522137 11.14711181 9.35830425 10.75 13.25 C9.48896101 16.02428577 8.43910086 17.73317435 6 19.5625 C2.68788168 20.57453615 0.19560774 20.67314481 -3.25 20.25 C-7.12949018 17.04520377 -9.05826445 14.94366403 -9.625 9.9375 C-9.15786625 5.34401813 -7.72959782 4.13552015 -4.25 1.25 C-3.25 0.25 -3.25 0.25 0 0 Z " fill="#212121" transform="translate(14.25,58.75)"/>
<path d="M0 0 C3.9672797 0.26448531 5.67929288 0.7934343 8.75 3.25 C11.07826375 6.46522137 11.14711181 9.35830425 10.75 13.25 C9.48896101 16.02428577 8.43910086 17.73317435 6 19.5625 C2.68788168 20.57453615 0.19560774 20.67314481 -3.25 20.25 C-7.12949018 17.04520377 -9.05826445 14.94366403 -9.625 9.9375 C-9.15786625 5.34401813 -7.72959782 4.13552015 -4.25 1.25 C-3.25 0.25 -3.25 0.25 0 0 Z " fill="#212121" transform="translate(176.25,31.75)"/>
<path d="M0 0 C3.9672797 0.26448531 5.67929288 0.7934343 8.75 3.25 C11.07826375 6.46522137 11.14711181 9.35830425 10.75 13.25 C9.48896101 16.02428577 8.43910086 17.73317435 6 19.5625 C2.68788168 20.57453615 0.19560774 20.67314481 -3.25 20.25 C-7.12949018 17.04520377 -9.05826445 14.94366403 -9.625 9.9375 C-9.15786625 5.34401813 -7.72959782 4.13552015 -4.25 1.25 C-3.25 0.25 -3.25 0.25 0 0 Z " fill="#212121" transform="translate(14.25,31.75)"/>
<path d="M0 0 C3.9672797 0.26448531 5.67929288 0.7934343 8.75 3.25 C11.07826375 6.46522137 11.14711181 9.35830425 10.75 13.25 C9.48896101 16.02428577 8.43910086 17.73317435 6 19.5625 C2.68788168 20.57453615 0.19560774 20.67314481 -3.25 20.25 C-7.12949018 17.04520377 -9.05826445 14.94366403 -9.625 9.9375 C-9.15786625 5.34401813 -7.72959782 4.13552015 -4.25 1.25 C-3.25 0.25 -3.25 0.25 0 0 Z " fill="#212121" transform="translate(176.25,4.75)"/>
<path d="M0 0 C3.9672797 0.26448531 5.67929288 0.7934343 8.75 3.25 C11.07826375 6.46522137 11.14711181 9.35830425 10.75 13.25 C9.48896101 16.02428577 8.43910086 17.73317435 6 19.5625 C2.68788168 20.57453615 0.19560774 20.67314481 -3.25 20.25 C-7.12949018 17.04520377 -9.05826445 14.94366403 -9.625 9.9375 C-9.15786625 5.34401813 -7.72959782 4.13552015 -4.25 1.25 C-3.25 0.25 -3.25 0.25 0 0 Z " fill="#212121" transform="translate(149.25,4.75)"/>
<path d="M0 0 C3.9672797 0.26448531 5.67929288 0.7934343 8.75 3.25 C11.07826375 6.46522137 11.14711181 9.35830425 10.75 13.25 C9.48896101 16.02428577 8.43910086 17.73317435 6 19.5625 C2.68788168 20.57453615 0.19560774 20.67314481 -3.25 20.25 C-7.12949018 17.04520377 -9.05826445 14.94366403 -9.625 9.9375 C-9.15786625 5.34401813 -7.72959782 4.13552015 -4.25 1.25 C-3.25 0.25 -3.25 0.25 0 0 Z " fill="#212121" transform="translate(122.25,4.75)"/>
<path d="M0 0 C3.9672797 0.26448531 5.67929288 0.7934343 8.75 3.25 C11.07826375 6.46522137 11.14711181 9.35830425 10.75 13.25 C9.48896101 16.02428577 8.43910086 17.73317435 6 19.5625 C2.68788168 20.57453615 0.19560774 20.67314481 -3.25 20.25 C-7.12949018 17.04520377 -9.05826445 14.94366403 -9.625 9.9375 C-9.15786625 5.34401813 -7.72959782 4.13552015 -4.25 1.25 C-3.25 0.25 -3.25 0.25 0 0 Z " fill="#212121" transform="translate(95.25,4.75)"/>
<path d="M0 0 C3.9672797 0.26448531 5.67929288 0.7934343 8.75 3.25 C11.07826375 6.46522137 11.14711181 9.35830425 10.75 13.25 C9.48896101 16.02428577 8.43910086 17.73317435 6 19.5625 C2.68788168 20.57453615 0.19560774 20.67314481 -3.25 20.25 C-7.12949018 17.04520377 -9.05826445 14.94366403 -9.625 9.9375 C-9.15786625 5.34401813 -7.72959782 4.13552015 -4.25 1.25 C-3.25 0.25 -3.25 0.25 0 0 Z " fill="#212121" transform="translate(68.25,4.75)"/>
<path d="M0 0 C3.9672797 0.26448531 5.67929288 0.7934343 8.75 3.25 C11.07826375 6.46522137 11.14711181 9.35830425 10.75 13.25 C9.48896101 16.02428577 8.43910086 17.73317435 6 19.5625 C2.68788168 20.57453615 0.19560774 20.67314481 -3.25 20.25 C-7.12949018 17.04520377 -9.05826445 14.94366403 -9.625 9.9375 C-9.15786625 5.34401813 -7.72959782 4.13552015 -4.25 1.25 C-3.25 0.25 -3.25 0.25 0 0 Z " fill="#212121" transform="translate(41.25,4.75)"/>
<path d="M0 0 C3.9672797 0.26448531 5.67929288 0.7934343 8.75 3.25 C11.07826375 6.46522137 11.14711181 9.35830425 10.75 13.25 C9.48896101 16.02428577 8.43910086 17.73317435 6 19.5625 C2.68788168 20.57453615 0.19560774 20.67314481 -3.25 20.25 C-7.12949018 17.04520377 -9.05826445 14.94366403 -9.625 9.9375 C-9.15786625 5.34401813 -7.72959782 4.13552015 -4.25 1.25 C-3.25 0.25 -3.25 0.25 0 0 Z " fill="#212121" transform="translate(14.25,4.75)"/>
</svg>
